<svg width="777.73" height="386.69" viewBox="0 0 777.73 386.69" xmlns="http://www.w3.org/2000/svg" xmlns:xlink="http://www.w3.org/1999/xlink" overflow="visible"><defs></defs><g><g><defs><path d="M0 386.69 3.2 386.69C28.3 379.51 197.14 308.48 367.45 308.48 496.25 308.48 499.73 292.92 346.12 292.92 155.44 292.92 0.78 334.85 0 386.69" id="SVGID_1_"/></defs><clipPath id="SVGID_2_"><use width="100%" height="100%" xlink:href="#SVGID_1_" overflow="visible"></use></clipPath><linearGradient x1="-180.303" y1="619.582" x2="-179.303" y2="619.582" gradientUnits="userSpaceOnUse" id="SVGID_3_" gradientTransform="matrix(462.805 0 0 -462.805 83445 287086)"><stop offset="0" stop-color="#CECECE"/><stop offset="0.00561523" stop-color="#CECECE"/><stop offset="0.3595" stop-color="#9D9D9C"/><stop offset="0.5451" stop-color="#AAA9A9"/><stop offset="0.6517" stop-color="#B2B2B2"/><stop offset="0.8652" stop-color="#B4B4B4"/><stop offset="1" stop-color="#B2B2B2"/><stop offset="1" stop-color="#DADADA"/></linearGradient><rect x="0" y="292.92" width="499.74" height="93.77" fill="url(#SVGID_3_)" clip-path="url(#SVGID_2_)"/></g><g><defs><path d="M411.5 78.72C282.7 78.72 279.3 94.21 432.9 94.21 614.44 94.21 763.3 56.18 777.73 7.85L777.73 0C762.03 2.8 587.6 78.72 411.5 78.72" id="SVGID_4_"/></defs><clipPath id="SVGID_5_"><use width="100%" height="100%" xlink:href="#SVGID_4_" overflow="visible"></use></clipPath><linearGradient x1="-180.303" y1="619.583" x2="-179.303" y2="619.583" gradientUnits="userSpaceOnUse" id="SVGID_6_" gradientTransform="matrix(462.682 0 0 -462.682 83739 286717)"><stop offset="0" stop-color="#CECECE"/><stop offset="0.00561523" stop-color="#CECECE"/><stop offset="0.3595" stop-color="#9D9D9C"/><stop offset="0.5451" stop-color="#AAA9A9"/><stop offset="0.6517" stop-color="#B2B2B2"/><stop offset="0.8652" stop-color="#B4B4B4"/><stop offset="1" stop-color="#B2B2B2"/><stop offset="1" stop-color="#DADADA"/></linearGradient><rect x="279.31" y="0" width="498.43" height="94.21" fill="url(#SVGID_6_)" clip-path="url(#SVGID_5_)"/></g><path d="M732.52 76.23C731.94 76.38 674.45 90.69 587.77 101.74L586.25 101.93 586.25 285.2 587.77 285.4C674.58 296.44 731.94 310.81 732.52 310.96L734.68 311.51 734.68 75.69 732.52 76.23Z" fill="#092E67"/><path d="M432.63 114.03 430.94 114.08 430.94 273.12 432.63 273.17C480.34 274.59 529.09 278.26 577.52 284.13L579.46 284.37 579.46 102.78 577.52 103.01C528.96 108.9 480.22 112.6 432.63 114.03" fill="#092E67"/><path d="M389.18 114.73C378.43 114.73 367.57 114.61 355.96 114.33L354.18 114.29 354.18 272.91 355.96 272.88C367.51 272.62 378.86 272.48 389.71 272.48 399.59 272.48 409.97 272.6 422.38 272.88L424.16 272.93 424.16 114.26 422.38 114.31C409.81 114.6 399.26 114.73 389.18 114.73" fill="#092E67"/><path d="M46.36 76.23 44.19 75.69 44.19 311.51 46.36 310.96C46.93 310.82 104.07 296.55 190.55 285.52L192.07 285.33 192.07 101.9 190.55 101.7C104.14 90.66 46.93 76.38 46.36 76.23" fill="#092E67"/><path d="M200.81 102.98 198.86 102.75 198.86 284.49 200.81 284.24C249.55 278.33 298.3 274.61 345.69 273.18L347.38 273.13 347.38 114.11 345.69 114.06C298.32 112.62 249.57 108.91 200.81 102.98" fill="#092E67"/><rect x="369.6" y="150.84" width="39.15" height="84.72" fill="#FFD800"/><path d="M454.08 235.56 561.21 235.56 561.21 213.83 493.23 213.83 493.23 203.28 553.21 203.28 553.21 183.11 493.23 183.11 493.23 172.56 559.25 172.56 559.25 150.83 454.08 150.83Z" fill="#FFD800"/><path d="M610.45 235.56 708.29 235.56 708.29 213.83 649.61 213.83 649.61 150.83 610.45 150.83Z" fill="#FFD800"/><g><path d="M179.43 150.83 140.27 150.83 140.27 197C140.27 205.66 140.27 216.45 121.77 216.45 102.71 216.45 102.71 205.66 102.71 197L102.71 150.83 63.56 150.83 63.56 202.81C63.56 226.28 82.77 237.58 121.58 237.58 160.37 237.58 179.43 226.28 179.43 202.81L179.43 150.83Z" fill="#FFD800"/><path d="M255.99 171.01 274.32 171.01C289.3 171.01 293.7 174.07 293.7 179.45 293.7 187.01 283.75 187.84 276.43 187.84L255.98 187.84 255.98 171.01ZM216.82 235.57 255.99 235.57 255.99 206.03 276.82 206.03C292.31 206.03 293.35 214.44 294.42 222.51 294.98 226.89 295.69 231.3 297.64 235.57L336.8 235.57C333.23 231.66 333.06 221.56 332.5 217.41 331.1 206.84 324.51 199.04 313.84 196.29 326.82 193.1 332.87 183.84 332.87 175.04 332.87 159.05 313.64 150.85 291.4 150.85L216.82 150.85 216.82 235.57Z" fill="#FFD800"/><path d="M681.53 132.4 681.53 125.93 685.78 125.93C688.04 125.93 690.2 126.54 690.2 129.13 690.2 132.31 687.44 132.4 684.6 132.4L681.53 132.4ZM681.53 134.38 685.41 134.38 690.7 142.71 693.38 142.71 687.8 134.38C690.38 133.93 692.54 132.47 692.54 129.13 692.54 125.79 690.65 123.97 686.46 123.97L679.25 123.97 679.25 142.71 681.52 142.71 681.52 134.38ZM685.12 119.42C692.93 119.42 698.83 125.58 698.83 133.31 698.83 141.06 692.93 147.21 685.12 147.21 677.3 147.21 671.41 141.06 671.41 133.31 671.4 125.58 677.3 119.42 685.12 119.42M685.12 117.13C675.94 117.13 668.93 124.24 668.93 133.32 668.93 142.42 675.95 149.54 685.12 149.54 694.28 149.54 701.32 142.42 701.32 133.32 701.32 124.23 694.28 117.13 685.12 117.13" fill="#FFD800"/></g></g></svg>